<?xml version="1.0" encoding="UTF-8" standalone="no"?>
<svg
   viewBox="0 0 24 24"
   version="1.1"
   id="svg4"
   sodipodi:docname="tools.svg"
   inkscape:version="1.2.2 (b0a8486541, 2022-12-01)"
   xmlns:inkscape="http://www.inkscape.org/namespaces/inkscape"
   xmlns:sodipodi="http://sodipodi.sourceforge.net/DTD/sodipodi-0.dtd"
   xmlns="http://www.w3.org/2000/svg"
   xmlns:svg="http://www.w3.org/2000/svg">
  <defs
     id="defs8" />
  <sodipodi:namedview
     id="namedview6"
     pagecolor="#ffffff"
     bordercolor="#000000"
     borderopacity="0.25"
     inkscape:showpageshadow="2"
     inkscape:pageopacity="0.0"
     inkscape:pagecheckerboard="0"
     inkscape:deskcolor="#d1d1d1"
     showgrid="false"
     inkscape:zoom="34.708333"
     inkscape:cx="11.985594"
     inkscape:cy="12"
     inkscape:window-width="1920"
     inkscape:window-height="1010"
     inkscape:window-x="0"
     inkscape:window-y="34"
     inkscape:window-maximized="1"
     inkscape:current-layer="svg4" />
  <path
     d="M21.71 20.29L20.29 21.71A1 1 0 0 1 18.88 21.71L7 9.85A3.81 3.81 0 0 1 6 10A4 4 0 0 1 2.22 4.7L4.76 7.24L5.29 6.71L6.71 5.29L7.24 4.76L4.7 2.22A4 4 0 0 1 10 6A3.81 3.81 0 0 1 9.85 7L21.71 18.88A1 1 0 0 1 21.71 20.29M2.29 18.88A1 1 0 0 0 2.29 20.29L3.71 21.71A1 1 0 0 0 5.12 21.71L10.59 16.25L7.76 13.42M20 2L16 4V6L13.83 8.17L15.83 10.17L18 8H20L22 4Z"
     id="path2"
     style="fill:#ffffff" />
</svg>
