<?xml version="1.0" encoding="UTF-8" standalone="no"?>
<svg
   viewBox="0 0 24 24"
   version="1.1"
   id="svg4"
   sodipodi:docname="vpn.svg"
   inkscape:version="1.2.2 (b0a8486541, 2022-12-01)"
   xmlns:inkscape="http://www.inkscape.org/namespaces/inkscape"
   xmlns:sodipodi="http://sodipodi.sourceforge.net/DTD/sodipodi-0.dtd"
   xmlns="http://www.w3.org/2000/svg"
   xmlns:svg="http://www.w3.org/2000/svg">
  <defs
     id="defs8" />
  <sodipodi:namedview
     id="namedview6"
     pagecolor="#ffffff"
     bordercolor="#000000"
     borderopacity="0.25"
     inkscape:showpageshadow="2"
     inkscape:pageopacity="0.0"
     inkscape:pagecheckerboard="0"
     inkscape:deskcolor="#d1d1d1"
     showgrid="false"
     inkscape:zoom="34.708333"
     inkscape:cx="11.985594"
     inkscape:cy="12"
     inkscape:window-width="1920"
     inkscape:window-height="1010"
     inkscape:window-x="0"
     inkscape:window-y="34"
     inkscape:window-maximized="1"
     inkscape:current-layer="svg4" />
  <path
     d="M9,5H15L12,8L9,5M10.5,14.66C10.2,15 10,15.5 10,16A2,2 0 0,0 12,18A2,2 0 0,0 14,16C14,15.45 13.78,14.95 13.41,14.59L14.83,13.17C15.55,13.9 16,14.9 16,16A4,4 0 0,1 12,20A4,4 0 0,1 8,16C8,14.93 8.42,13.96 9.1,13.25L9.09,13.24L16.17,6.17V6.17C16.89,5.45 17.89,5 19,5A4,4 0 0,1 23,9A4,4 0 0,1 19,13C17.9,13 16.9,12.55 16.17,11.83L17.59,10.41C17.95,10.78 18.45,11 19,11A2,2 0 0,0 21,9A2,2 0 0,0 19,7C18.45,7 17.95,7.22 17.59,7.59L10.5,14.66M6.41,7.59C6.05,7.22 5.55,7 5,7A2,2 0 0,0 3,9A2,2 0 0,0 5,11C5.55,11 6.05,10.78 6.41,10.41L7.83,11.83C7.1,12.55 6.1,13 5,13A4,4 0 0,1 1,9A4,4 0 0,1 5,5C6.11,5 7.11,5.45 7.83,6.17V6.17L10.59,8.93L9.17,10.35L6.41,7.59Z"
     id="path2"
     style="fill:#ffffff" />
</svg>
